<svg width="91" height="29" viewBox="0 0 91 29" fill="none" xmlns="http://www.w3.org/2000/svg">
<g clip-path="url(#clip0_2028_2)">
<path d="M28.8266 19.0789C28.7444 18.7695 28.7238 18.4189 28.6211 18.1095C27.9842 16.0676 26.6075 14.8713 24.5324 14.4587C23.9571 14.335 23.3612 14.4175 22.7859 14.4587C22.1695 14.5206 21.5326 14.5825 20.9162 14.665C20.0738 14.7475 19.2108 14.83 18.3684 14.9125C17.5466 14.995 16.7247 15.0775 15.9029 15.16C15.0399 15.2425 14.177 15.3456 13.2935 15.4282C12.4922 15.5107 11.6909 15.5725 10.869 15.655C9.82114 15.7582 8.79382 15.8613 7.74595 15.9644C6.9241 16.0469 6.10224 16.1501 5.28039 16.1913C3.96542 16.2738 2.73263 16.6038 1.72586 17.532C0.760178 18.4189 0.205425 19.4915 0.0616006 20.7909C0.0616006 20.8528 0.0410542 20.894 0.0205078 20.9353C0.0410542 21.4509 0.12324 21.9666 0.225972 22.4616C0.308157 22.7916 0.390343 23.1216 0.513621 23.4516C1.66422 26.6693 4.84891 29.0206 8.30071 29.0206H8.3418C10.5403 29.0206 12.7182 29.0206 14.9166 29.0206C17.1151 29.0206 18.5739 29.0206 20.4025 29.0206C20.5669 29.0206 20.7107 29.0206 20.8751 29.0206C22.4777 28.9381 23.9571 28.4431 25.272 27.4737C26.5665 26.5455 27.5116 25.3905 28.1074 24.0291C28.3951 23.3691 28.6005 22.6472 28.7238 21.8634C28.8677 20.9559 28.806 20.0483 28.8266 19.1202V19.0789ZM12.2251 20.7084C10.643 22.2966 9.06092 23.8848 7.47885 25.473C7.29393 25.6586 7.08847 25.8442 6.90355 26.0505C6.82137 26.1536 6.75973 26.133 6.67754 26.0505C5.71186 25.0604 4.72563 24.091 3.75995 23.101C3.61613 22.9566 3.53394 22.771 3.55449 22.6266C3.55449 22.2141 3.71886 21.9872 4.02706 21.8428C4.3558 21.6984 4.64345 21.7809 4.89 22.0284C5.4653 22.606 6.0406 23.1835 6.6159 23.761C6.75973 23.9054 6.84191 23.926 6.98574 23.761C8.36235 22.3584 9.7595 20.9765 11.1567 19.574C11.4032 19.3264 11.6909 19.2233 12.0196 19.3471C12.3278 19.4502 12.4922 19.6977 12.5333 20.0071C12.5538 20.2959 12.4305 20.5021 12.2456 20.7084H12.2251Z" fill="#020102"/>
<path d="M28.8266 13.1593C28.8266 15.1394 28.8266 17.0988 28.8266 19.0789C28.7444 18.7695 28.7238 18.4189 28.6211 18.1095C27.9842 16.0675 26.6075 14.8712 24.5324 14.4587C23.9571 14.335 23.3612 14.4175 22.7859 14.4587C22.1695 14.5206 21.5326 14.5825 20.9162 14.665C20.0738 14.7475 19.2108 14.83 18.3684 14.9125C17.5466 14.995 16.7247 15.0775 15.9029 15.16C15.0399 15.2425 14.177 15.3456 13.2935 15.4281C12.4922 15.5106 11.6909 15.5725 10.869 15.655C9.82114 15.7582 8.79382 15.8613 7.74595 15.9644C6.9241 16.0469 6.10224 16.15 5.28039 16.1913C3.96542 16.2738 2.73263 16.6038 1.72586 17.532C0.760178 18.4189 0.205425 19.4914 0.0616006 20.7909C0.0616006 20.8527 0.0410542 20.894 0.0205078 20.9352C0.0205078 20.6259 0.0205078 20.3165 0.0205078 20.0071C0.0205078 17.037 0.0205078 14.0668 0.0205078 11.0967C0.0205078 8.49784 1.7875 6.394 4.3558 5.98148C5.05438 5.85772 5.75295 5.98148 6.45153 6.04336C7.66377 6.14649 8.87601 6.29087 10.0882 6.394C11.7114 6.559 13.314 6.72401 14.9372 6.86839C16.5193 7.01277 18.1013 7.15716 19.6629 7.32216C21.3477 7.5078 23.053 7.56967 24.7378 7.85844C26.8747 8.20908 28.5389 10.0654 28.7649 12.2311C28.806 12.5405 28.806 12.8499 28.806 13.1593H28.8266Z" fill="#635BFF"/>
<path d="M3.53418 22.6266C3.53418 22.2141 3.69855 21.9872 4.00675 21.8428C4.33549 21.6984 4.62314 21.7809 4.8697 22.0284C5.44499 22.6059 6.02029 23.1835 6.59559 23.761C6.73942 23.9054 6.8216 23.926 6.96543 23.761C8.34204 22.3584 9.73919 20.9765 11.1363 19.5739C11.3829 19.3264 11.6706 19.2233 11.9993 19.3471C12.3075 19.4502 12.4719 19.6977 12.513 20.0071C12.5335 20.2958 12.4308 20.5021 12.2253 20.7084C10.6432 22.2966 9.06116 23.8848 7.47909 25.4729C7.29417 25.6586 7.08871 25.8442 6.90379 26.0505C6.8216 26.1536 6.75996 26.133 6.67778 26.0505C5.7121 25.0604 4.72587 24.091 3.76019 23.101C3.61636 22.9566 3.53418 22.771 3.55473 22.6266H3.53418Z" fill="white"/>
<path d="M34.3945 29V7.71411H43.8459C45.1198 7.71411 46.2293 8.18851 47.1538 9.11667C48.0784 10.0448 48.5305 11.1586 48.5305 12.4581V14.8094C48.5305 16.0882 48.0784 17.202 47.1538 18.1508C46.2293 19.079 45.1198 19.5534 43.8459 19.5534H39.1202V29H34.3945ZM39.1202 17.1608H41.4625C42.12 17.1608 42.6747 16.9339 43.1473 16.4595C43.5993 16.0057 43.8459 15.4488 43.8459 14.7888V12.4374C43.8459 11.7774 43.6199 11.2205 43.1473 10.7461C42.6953 10.2923 42.12 10.0448 41.4625 10.0448H39.1202V17.1401V17.1608Z" fill="#635BFF"/>
<path d="M67.3919 29H62.6867V17.1608C62.6867 16.5214 62.4607 15.9645 61.9882 15.4901C61.5361 15.0363 60.9608 14.7888 60.3034 14.7888C59.6459 14.7888 59.1117 15.0157 58.6391 15.4901C58.1665 15.9645 57.9405 16.5007 57.9405 17.1608V29H53.2148V12.4581H57.9405V14.8094C58.0432 14.005 58.2898 13.4275 58.6802 13.0356C59.0706 12.6437 59.6048 12.4581 60.2828 12.4581H62.6662C64.2688 12.4581 65.44 13.015 66.2002 14.1288C66.57 13.5512 67.0631 13.1387 67.6384 12.8706C68.2137 12.6025 68.9123 12.4581 69.7341 12.4581H72.0764C73.3503 12.4581 74.4598 12.9118 75.405 13.84C76.3295 14.7682 76.8021 15.882 76.8021 17.1608V29H72.0764V17.1608C72.0764 16.542 71.8504 15.9851 71.3779 15.5107C70.9258 15.0363 70.3711 14.8094 69.7136 14.8094C69.0561 14.8094 68.5219 15.0363 68.0493 15.5107C67.5768 15.9645 67.3508 16.5214 67.3508 17.1814V29.0207L67.3919 29Z" fill="#635BFF"/>
<path d="M83.9112 7.71411H88.6163V12.4581H90.9997V14.8094H88.6163V24.2561C88.6163 25.0399 88.8629 25.6174 89.3766 26.0299C89.8902 26.4424 90.3422 26.6487 90.7532 26.6487H90.9792V29H88.5958C87.3219 29 86.2124 28.5463 85.2878 27.6181C84.3632 26.6899 83.9112 25.5761 83.9112 24.2767V14.83H81.5278V12.4787H83.9112V7.73474V7.71411Z" fill="#635BFF"/>
</g>
<defs>
<clipPath id="clip0_2028_2">
<rect width="91" height="29" fill="white"/>
</clipPath>
</defs>
</svg>
