<svg width="91" height="29" viewBox="0 0 91 29" fill="none" xmlns="http://www.w3.org/2000/svg">
<g clip-path="url(#clip0_2028_2)">
<rect width="29" height="28" rx="8" fill="#EC4899"/>
<path d="M29 19.098C28.9173 18.7898 28.8966 18.4406 28.7932 18.1324C28.1519 16.0986 26.7661 14.9071 24.6769 14.4962C24.0977 14.3729 23.4979 14.4551 22.9187 14.4962C22.2981 14.5578 21.6569 14.6195 21.0364 14.7016C20.1883 14.7838 19.3195 14.866 18.4715 14.9482C17.6441 15.0303 16.8167 15.1125 15.9893 15.1947C15.1205 15.2769 14.2518 15.3796 13.3623 15.4617C12.5556 15.5439 11.7489 15.6056 10.9215 15.6877C9.86662 15.7904 8.83238 15.8932 7.77746 15.9959C6.95007 16.0781 6.12268 16.1808 5.29529 16.2219C3.97147 16.304 2.73039 16.6327 1.71683 17.5572C0.74465 18.4406 0.186163 19.5088 0.0413695 20.8031C0.0413695 20.8647 0.0206847 20.9058 0 20.9469C0.0206847 21.4605 0.103424 21.9741 0.206847 22.4671C0.289586 22.7958 0.372325 23.1245 0.496434 23.4532C1.65478 26.658 4.86091 29 8.33595 29H8.37732C10.5906 29 12.7832 29 14.9964 29C17.2097 29 18.6783 29 20.5193 29C20.6847 29 20.8295 29 20.995 29C22.6084 28.9178 24.0977 28.4248 25.4215 27.4592C26.7247 26.5348 27.6762 25.3843 28.276 24.0284C28.5656 23.371 28.7725 22.652 28.8966 21.8714C29.0414 20.9674 28.9793 20.0635 29 19.1391V19.098ZM12.2867 20.7209C10.694 22.3028 9.10128 23.8846 7.50856 25.4665C7.3224 25.6514 7.11555 25.8363 6.92939 26.0417C6.84665 26.1444 6.78459 26.1239 6.70186 26.0417C5.72967 25.0556 4.7368 24.0901 3.76462 23.104C3.61983 22.9602 3.53709 22.7753 3.55777 22.6315C3.55777 22.2206 3.72325 21.9946 4.03352 21.8508C4.36448 21.707 4.65407 21.7892 4.90228 22.0357C5.48146 22.6109 6.06063 23.1862 6.6398 23.7614C6.78459 23.9052 6.86733 23.9257 7.01213 23.7614C8.398 22.3644 9.80457 20.988 11.2111 19.591C11.4593 19.3445 11.7489 19.2418 12.0799 19.365C12.3902 19.4678 12.5556 19.7143 12.597 20.0224C12.6177 20.31 12.4936 20.5155 12.3074 20.7209H12.2867Z" fill="#020102"/>
<path d="M29 13.2019C29 15.1741 29 17.1258 29 19.098C28.9173 18.7898 28.8966 18.4406 28.7932 18.1324C28.1519 16.0986 26.7661 14.9071 24.6769 14.4962C24.0977 14.3729 23.4979 14.4551 22.9187 14.4962C22.2981 14.5578 21.6569 14.6194 21.0364 14.7016C20.1883 14.7838 19.3195 14.866 18.4715 14.9481C17.6441 15.0303 16.8167 15.1125 15.9893 15.1947C15.1205 15.2768 14.2518 15.3796 13.3623 15.4617C12.5556 15.5439 11.7489 15.6055 10.9215 15.6877C9.86662 15.7904 8.83238 15.8932 7.77746 15.9959C6.95007 16.078 6.12268 16.1808 5.29529 16.2218C3.97147 16.304 2.73039 16.6327 1.71683 17.5572C0.74465 18.4406 0.186163 19.5088 0.0413695 20.8031C0.0413695 20.8647 0.0206847 20.9058 0 20.9469C0 20.6387 0 20.3306 0 20.0224C0 17.0641 0 14.1059 0 11.1476C0 8.55907 1.77889 6.46361 4.36448 6.05274C5.06776 5.92948 5.77104 6.05274 6.47432 6.11437C7.69472 6.21709 8.91512 6.3609 10.1355 6.46361C11.7696 6.62796 13.383 6.79231 15.0171 6.93612C16.6098 7.07992 18.2026 7.22373 19.7746 7.38808C21.4708 7.57297 23.1876 7.6346 24.8837 7.92221C27.035 8.27145 28.7104 10.1204 28.9379 12.2775C28.9793 12.5856 28.9793 12.8938 28.9793 13.2019H29Z" fill="#635BFF"/>
<path d="M3.53711 22.6315C3.53711 22.2206 3.70259 21.9946 4.01286 21.8508C4.34381 21.707 4.6334 21.7892 4.88162 22.0357C5.46079 22.6109 6.03996 23.1862 6.61913 23.7614C6.76393 23.9052 6.84667 23.9257 6.99146 23.7614C8.37734 22.3644 9.7839 20.988 11.1905 19.591C11.4387 19.3445 11.7283 19.2418 12.0592 19.365C12.3695 19.4678 12.535 19.7143 12.5763 20.0224C12.597 20.31 12.4936 20.5155 12.2868 20.7209C10.694 22.3028 9.1013 23.8846 7.50858 25.4665C7.32242 25.6514 7.11557 25.8363 6.92941 26.0417C6.84667 26.1444 6.78461 26.1239 6.70187 26.0417C5.72969 25.0556 4.73682 24.0901 3.76464 23.104C3.61985 22.9602 3.53711 22.7753 3.55779 22.6315H3.53711Z" fill="white"/>
<path d="M34.3945 29V7.71411H43.8459C45.1198 7.71411 46.2293 8.18851 47.1538 9.11667C48.0784 10.0448 48.5305 11.1586 48.5305 12.4581V14.8094C48.5305 16.0882 48.0784 17.202 47.1538 18.1508C46.2293 19.079 45.1198 19.5534 43.8459 19.5534H39.1202V29H34.3945ZM39.1202 17.1608H41.4625C42.12 17.1608 42.6747 16.9339 43.1473 16.4595C43.5993 16.0057 43.8459 15.4488 43.8459 14.7888V12.4374C43.8459 11.7774 43.6199 11.2205 43.1473 10.7461C42.6953 10.2923 42.12 10.0448 41.4625 10.0448H39.1202V17.1401V17.1608Z" fill="#635BFF"/>
<path d="M67.3919 29H62.6867V17.1608C62.6867 16.5214 62.4607 15.9645 61.9882 15.4901C61.5361 15.0363 60.9608 14.7888 60.3034 14.7888C59.6459 14.7888 59.1117 15.0157 58.6391 15.4901C58.1665 15.9645 57.9405 16.5007 57.9405 17.1608V29H53.2148V12.4581H57.9405V14.8094C58.0432 14.005 58.2898 13.4275 58.6802 13.0356C59.0706 12.6437 59.6048 12.4581 60.2828 12.4581H62.6662C64.2688 12.4581 65.44 13.015 66.2002 14.1288C66.57 13.5512 67.0631 13.1387 67.6384 12.8706C68.2137 12.6025 68.9123 12.4581 69.7341 12.4581H72.0764C73.3503 12.4581 74.4598 12.9118 75.405 13.84C76.3295 14.7682 76.8021 15.882 76.8021 17.1608V29H72.0764V17.1608C72.0764 16.542 71.8504 15.9851 71.3779 15.5107C70.9258 15.0363 70.3711 14.8094 69.7136 14.8094C69.0561 14.8094 68.5219 15.0363 68.0493 15.5107C67.5768 15.9645 67.3508 16.5214 67.3508 17.1814V29.0207L67.3919 29Z" fill="#635BFF"/>
<path d="M83.9112 7.71411H88.6163V12.4581H90.9997V14.8094H88.6163V24.2561C88.6163 25.0399 88.8629 25.6174 89.3766 26.0299C89.8902 26.4424 90.3422 26.6487 90.7532 26.6487H90.9792V29H88.5958C87.3219 29 86.2124 28.5463 85.2878 27.6181C84.3632 26.6899 83.9112 25.5761 83.9112 24.2767V14.83H81.5278V12.4787H83.9112V7.73474V7.71411Z" fill="#635BFF"/>
</g>
<defs>
<clipPath id="clip0_2028_2">
<rect width="91" height="29" fill="white"/>
</clipPath>
</defs>
</svg>
